<mxfile host="Electron" modified="2024-01-31T20:27:29.191Z" agent="Mozilla/5.0 (Windows NT 10.0; Win64; x64) AppleWebKit/537.36 (KHTML, like Gecko) draw.io/22.1.16 Chrome/120.0.6099.109 Electron/28.1.0 Safari/537.36" etag="_vPpAH4x8tgdtb8-4ILz" version="22.1.16" type="device">
  <diagram id="C5RBs43oDa-KdzZeNtuy" name="Page-1">
    <mxGraphModel dx="864" dy="508" grid="0" gridSize="10" guides="1" tooltips="1" connect="1" arrows="1" fold="1" page="1" pageScale="1" pageWidth="827" pageHeight="1169" math="0" shadow="0">
      <root>
        <mxCell id="WIyWlLk6GJQsqaUBKTNV-0" />
        <mxCell id="WIyWlLk6GJQsqaUBKTNV-1" parent="WIyWlLk6GJQsqaUBKTNV-0" />
        <mxCell id="86FwZAQYS3h-tKqfAoDZ-22" value="IPhone10" style="swimlane;fontStyle=0;align=center;verticalAlign=top;childLayout=stackLayout;horizontal=1;startSize=26;horizontalStack=0;resizeParent=1;resizeLast=0;collapsible=1;marginBottom=0;rounded=0;shadow=0;strokeWidth=1;" parent="WIyWlLk6GJQsqaUBKTNV-1" vertex="1">
          <mxGeometry x="311" y="715" width="191" height="84" as="geometry">
            <mxRectangle x="130" y="380" width="160" height="26" as="alternateBounds" />
          </mxGeometry>
        </mxCell>
        <mxCell id="86FwZAQYS3h-tKqfAoDZ-23" value="+ patroRostre: String" style="text;align=left;verticalAlign=top;spacingLeft=4;spacingRight=4;overflow=hidden;rotatable=0;points=[[0,0.5],[1,0.5]];portConstraint=eastwest;" parent="86FwZAQYS3h-tKqfAoDZ-22" vertex="1">
          <mxGeometry y="26" width="191" height="26" as="geometry" />
        </mxCell>
        <mxCell id="86FwZAQYS3h-tKqfAoDZ-25" value="" style="line;html=1;strokeWidth=1;align=left;verticalAlign=middle;spacingTop=-1;spacingLeft=3;spacingRight=3;rotatable=0;labelPosition=right;points=[];portConstraint=eastwest;" parent="86FwZAQYS3h-tKqfAoDZ-22" vertex="1">
          <mxGeometry y="52" width="191" height="6" as="geometry" />
        </mxCell>
        <mxCell id="86FwZAQYS3h-tKqfAoDZ-28" value="+ setPatroRostre(): void" style="text;align=left;verticalAlign=top;spacingLeft=4;spacingRight=4;overflow=hidden;rotatable=0;points=[[0,0.5],[1,0.5]];portConstraint=eastwest;fontStyle=0" parent="86FwZAQYS3h-tKqfAoDZ-22" vertex="1">
          <mxGeometry y="58" width="191" height="26" as="geometry" />
        </mxCell>
        <mxCell id="86FwZAQYS3h-tKqfAoDZ-30" value="Extends" style="endArrow=block;endSize=16;endFill=0;html=1;rounded=0;exitX=0.461;exitY=0.01;exitDx=0;exitDy=0;exitPerimeter=0;" parent="WIyWlLk6GJQsqaUBKTNV-1" source="86FwZAQYS3h-tKqfAoDZ-22" edge="1">
          <mxGeometry width="160" relative="1" as="geometry">
            <mxPoint x="152" y="626" as="sourcePoint" />
            <mxPoint x="399.8204368767956" y="653" as="targetPoint" />
          </mxGeometry>
        </mxCell>
        <mxCell id="b4w10FD1L1iH1ylHdtIp-0" value="&lt;span style=&quot;font-weight: normal;&quot;&gt;&amp;lt;&amp;lt;Abstract&amp;gt;&amp;gt;&lt;/span&gt;&lt;br&gt;Empleat" style="swimlane;fontStyle=1;align=center;verticalAlign=top;childLayout=stackLayout;horizontal=1;startSize=35;horizontalStack=0;resizeParent=1;resizeParentMax=0;resizeLast=0;collapsible=1;marginBottom=0;whiteSpace=wrap;html=1;" parent="WIyWlLk6GJQsqaUBKTNV-1" vertex="1">
          <mxGeometry x="250" y="134" width="160" height="153" as="geometry" />
        </mxCell>
        <mxCell id="b4w10FD1L1iH1ylHdtIp-1" value="+ nom: String&lt;br&gt;+ llinatge: String&lt;br&gt;+ souBase: double" style="text;strokeColor=none;fillColor=none;align=left;verticalAlign=top;spacingLeft=4;spacingRight=4;overflow=hidden;rotatable=0;points=[[0,0.5],[1,0.5]];portConstraint=eastwest;whiteSpace=wrap;html=1;" parent="b4w10FD1L1iH1ylHdtIp-0" vertex="1">
          <mxGeometry y="35" width="160" height="53" as="geometry" />
        </mxCell>
        <mxCell id="b4w10FD1L1iH1ylHdtIp-2" value="" style="line;strokeWidth=1;fillColor=none;align=left;verticalAlign=middle;spacingTop=-1;spacingLeft=3;spacingRight=3;rotatable=0;labelPosition=right;points=[];portConstraint=eastwest;strokeColor=inherit;" parent="b4w10FD1L1iH1ylHdtIp-0" vertex="1">
          <mxGeometry y="88" width="160" height="8" as="geometry" />
        </mxCell>
        <mxCell id="b4w10FD1L1iH1ylHdtIp-3" value="&lt;i&gt;&lt;b&gt;+ calculaSalari(): double&lt;br&gt;&lt;/b&gt;&lt;/i&gt;+ toString(): String&lt;br&gt;+ equals(Object): boolean" style="text;strokeColor=none;fillColor=none;align=left;verticalAlign=top;spacingLeft=4;spacingRight=4;overflow=hidden;rotatable=0;points=[[0,0.5],[1,0.5]];portConstraint=eastwest;whiteSpace=wrap;html=1;" parent="b4w10FD1L1iH1ylHdtIp-0" vertex="1">
          <mxGeometry y="96" width="160" height="57" as="geometry" />
        </mxCell>
        <mxCell id="b4w10FD1L1iH1ylHdtIp-8" value="EmpleatAssalariat" style="swimlane;fontStyle=1;align=center;verticalAlign=top;childLayout=stackLayout;horizontal=1;startSize=26;horizontalStack=0;resizeParent=1;resizeParentMax=0;resizeLast=0;collapsible=1;marginBottom=0;whiteSpace=wrap;html=1;" parent="WIyWlLk6GJQsqaUBKTNV-1" vertex="1">
          <mxGeometry x="165" y="361" width="160" height="34" as="geometry" />
        </mxCell>
        <mxCell id="b4w10FD1L1iH1ylHdtIp-10" value="" style="line;strokeWidth=1;fillColor=none;align=left;verticalAlign=middle;spacingTop=-1;spacingLeft=3;spacingRight=3;rotatable=0;labelPosition=right;points=[];portConstraint=eastwest;strokeColor=inherit;" parent="b4w10FD1L1iH1ylHdtIp-8" vertex="1">
          <mxGeometry y="26" width="160" height="8" as="geometry" />
        </mxCell>
        <mxCell id="b4w10FD1L1iH1ylHdtIp-16" value="Extends" style="endArrow=block;endSize=16;endFill=0;html=1;rounded=0;exitX=0.5;exitY=0;exitDx=0;exitDy=0;" parent="WIyWlLk6GJQsqaUBKTNV-1" source="b4w10FD1L1iH1ylHdtIp-8" target="b4w10FD1L1iH1ylHdtIp-0" edge="1">
          <mxGeometry width="160" relative="1" as="geometry">
            <mxPoint x="274" y="365" as="sourcePoint" />
            <mxPoint x="434" y="365" as="targetPoint" />
          </mxGeometry>
        </mxCell>
        <mxCell id="b4w10FD1L1iH1ylHdtIp-17" value="Extends" style="endArrow=block;endSize=16;endFill=0;html=1;rounded=0;exitX=0.5;exitY=0;exitDx=0;exitDy=0;" parent="WIyWlLk6GJQsqaUBKTNV-1" source="b4w10FD1L1iH1ylHdtIp-19" target="b4w10FD1L1iH1ylHdtIp-3" edge="1">
          <mxGeometry width="160" relative="1" as="geometry">
            <mxPoint x="274" y="365" as="sourcePoint" />
            <mxPoint x="434" y="365" as="targetPoint" />
          </mxGeometry>
        </mxCell>
        <mxCell id="b4w10FD1L1iH1ylHdtIp-19" value="EmpleatAutonom" style="swimlane;fontStyle=1;align=center;verticalAlign=top;childLayout=stackLayout;horizontal=1;startSize=26;horizontalStack=0;resizeParent=1;resizeParentMax=0;resizeLast=0;collapsible=1;marginBottom=0;whiteSpace=wrap;html=1;" parent="WIyWlLk6GJQsqaUBKTNV-1" vertex="1">
          <mxGeometry x="347" y="361" width="160" height="86" as="geometry" />
        </mxCell>
        <mxCell id="b4w10FD1L1iH1ylHdtIp-20" value="+ horesTreballades: int" style="text;strokeColor=none;fillColor=none;align=left;verticalAlign=top;spacingLeft=4;spacingRight=4;overflow=hidden;rotatable=0;points=[[0,0.5],[1,0.5]];portConstraint=eastwest;whiteSpace=wrap;html=1;" parent="b4w10FD1L1iH1ylHdtIp-19" vertex="1">
          <mxGeometry y="26" width="160" height="26" as="geometry" />
        </mxCell>
        <mxCell id="b4w10FD1L1iH1ylHdtIp-21" value="" style="line;strokeWidth=1;fillColor=none;align=left;verticalAlign=middle;spacingTop=-1;spacingLeft=3;spacingRight=3;rotatable=0;labelPosition=right;points=[];portConstraint=eastwest;strokeColor=inherit;" parent="b4w10FD1L1iH1ylHdtIp-19" vertex="1">
          <mxGeometry y="52" width="160" height="8" as="geometry" />
        </mxCell>
        <mxCell id="b4w10FD1L1iH1ylHdtIp-22" value="+ toString: String" style="text;strokeColor=none;fillColor=none;align=left;verticalAlign=top;spacingLeft=4;spacingRight=4;overflow=hidden;rotatable=0;points=[[0,0.5],[1,0.5]];portConstraint=eastwest;whiteSpace=wrap;html=1;" parent="b4w10FD1L1iH1ylHdtIp-19" vertex="1">
          <mxGeometry y="60" width="160" height="26" as="geometry" />
        </mxCell>
      </root>
    </mxGraphModel>
  </diagram>
</mxfile>
